<svg width="209" height="54" viewBox="0 0 209 54" fill="none" xmlns="http://www.w3.org/2000/svg">
<path fill-rule="evenodd" clip-rule="evenodd" d="M43.8509 29.7L24.2439 39.2L32.0369 14.02L43.8509 29.7Z" fill="#2584FF" stroke="#2584FF" stroke-width="10" stroke-linecap="round" stroke-linejoin="round"/>
<g style="mix-blend-mode:lighten">
<path fill-rule="evenodd" clip-rule="evenodd" d="M37.033 29.7L56.64 39.2L48.847 14.02L37.033 29.7Z" fill="#FF3400"/>
<path fill-rule="evenodd" clip-rule="evenodd" d="M37.033 29.7L56.64 39.2L48.847 14.02L37.033 29.7Z" stroke="#FF3400" stroke-width="10" stroke-linecap="round" stroke-linejoin="round"/>
</g>
<path d="M74.1077 12.6263H77.2607L84.6744 30.7345H84.93L92.3437 12.6263H95.4967V34.4413H93.0254V17.867H92.8124L85.9952 34.4413H83.6092L76.792 17.867H76.579V34.4413H74.1077V12.6263ZM107.099 34.7822C105.622 34.7822 104.326 34.4307 103.211 33.7277C102.103 33.0246 101.237 32.0411 100.612 30.7771C99.9944 29.5131 99.6855 28.036 99.6855 26.3459C99.6855 24.6416 99.9944 23.1539 100.612 21.8828C101.237 20.6117 102.103 19.6246 103.211 18.9216C104.326 18.2186 105.622 17.867 107.099 17.867C108.576 17.867 109.869 18.2186 110.976 18.9216C112.091 19.6246 112.958 20.6117 113.576 21.8828C114.2 23.1539 114.513 24.6416 114.513 26.3459C114.513 28.036 114.2 29.5131 113.576 30.7771C112.958 32.0411 112.091 33.0246 110.976 33.7277C109.869 34.4307 108.576 34.7822 107.099 34.7822ZM107.099 32.524C108.221 32.524 109.144 32.2364 109.869 31.6612C110.593 31.086 111.129 30.3297 111.477 29.3924C111.825 28.455 111.999 27.4395 111.999 26.3459C111.999 25.2523 111.825 24.2333 111.477 23.2888C111.129 22.3444 110.593 21.581 109.869 20.9987C109.144 20.4164 108.221 20.1252 107.099 20.1252C105.977 20.1252 105.054 20.4164 104.33 20.9987C103.605 21.581 103.069 22.3444 102.721 23.2888C102.373 24.2333 102.199 25.2523 102.199 26.3459C102.199 27.4395 102.373 28.455 102.721 29.3924C103.069 30.3297 103.605 31.086 104.33 31.6612C105.054 32.2364 105.977 32.524 107.099 32.524ZM129.939 21.7443L127.681 22.3834C127.539 22.0071 127.33 21.6414 127.053 21.2863C126.783 20.9241 126.414 20.6259 125.945 20.3915C125.476 20.1572 124.876 20.04 124.145 20.04C123.144 20.04 122.309 20.2708 121.642 20.7324C120.981 21.1869 120.651 21.7656 120.651 22.4686C120.651 23.0936 120.878 23.5871 121.333 23.9493C121.787 24.3114 122.497 24.6132 123.463 24.8547L125.892 25.4512C127.355 25.8062 128.445 26.3495 129.162 27.0809C129.879 27.8052 130.238 28.739 130.238 29.8823C130.238 30.8197 129.968 31.6577 129.428 32.3962C128.896 33.1347 128.15 33.717 127.191 34.1431C126.233 34.5692 125.118 34.7822 123.847 34.7822C122.178 34.7822 120.797 34.42 119.703 33.6957C118.609 32.9714 117.917 31.9133 117.626 30.5215L120.012 29.925C120.239 30.8055 120.669 31.4659 121.301 31.9062C121.94 32.3465 122.774 32.5666 123.804 32.5666C124.976 32.5666 125.906 32.3181 126.595 31.821C127.291 31.3168 127.639 30.7132 127.639 30.0102C127.639 29.4421 127.44 28.9663 127.042 28.5828C126.645 28.1923 126.034 27.9011 125.21 27.7094L122.483 27.0703C120.985 26.7152 119.884 26.1648 119.181 25.4192C118.485 24.6665 118.137 23.7256 118.137 22.5965C118.137 21.6733 118.396 20.8567 118.915 20.1465C119.44 19.4364 120.154 18.879 121.056 18.4742C121.965 18.0694 122.994 17.867 124.145 17.867C125.764 17.867 127.035 18.2221 127.958 18.9322C128.888 19.6424 129.549 20.5797 129.939 21.7443ZM136.536 24.599V34.4413H134.022V12.6263H136.536V20.6365H136.749C137.132 19.7915 137.707 19.1204 138.474 18.6233C139.248 18.1191 140.278 17.867 141.563 17.867C142.678 17.867 143.655 18.0907 144.493 18.5381C145.331 18.9784 145.98 19.6566 146.442 20.5726C146.911 21.4816 147.145 22.6391 147.145 24.0451V34.4413H144.631V24.2156C144.631 22.916 144.294 21.9112 143.619 21.2011C142.952 20.4838 142.025 20.1252 140.839 20.1252C140.015 20.1252 139.277 20.2992 138.623 20.6472C137.977 20.9951 137.466 21.5029 137.09 22.1704C136.72 22.8379 136.536 23.6475 136.536 24.599ZM151.744 34.4413V18.0801H154.258V34.4413H151.744ZM153.022 15.3532C152.532 15.3532 152.11 15.1863 151.755 14.8526C151.407 14.5188 151.233 14.1176 151.233 13.6489C151.233 13.1802 151.407 12.779 151.755 12.4452C152.11 12.1115 152.532 11.9446 153.022 11.9446C153.512 11.9446 153.931 12.1115 154.279 12.4452C154.634 12.779 154.812 13.1802 154.812 13.6489C154.812 14.1176 154.634 14.5188 154.279 14.8526C153.931 15.1863 153.512 15.3532 153.022 15.3532ZM166.148 18.0801V20.2105H157.328V18.0801H166.148ZM159.97 34.4413V15.8219C159.97 14.8845 160.19 14.1034 160.63 13.4785C161.07 12.8536 161.642 12.3849 162.345 12.0724C163.048 11.76 163.79 11.6037 164.571 11.6037C165.189 11.6037 165.693 11.6535 166.084 11.7529C166.474 11.8523 166.766 11.9446 166.957 12.0298L166.233 14.2028C166.105 14.1602 165.928 14.1069 165.7 14.043C165.48 13.9791 165.189 13.9472 164.827 13.9472C163.996 13.9472 163.396 14.1566 163.027 14.5756C162.665 14.9946 162.484 15.6088 162.484 16.4184V34.4413H159.97ZM171.29 40.5768C170.864 40.5768 170.484 40.5413 170.15 40.4703C169.817 40.4064 169.586 40.3425 169.458 40.2786L170.097 38.063C170.708 38.2192 171.247 38.276 171.716 38.2334C172.185 38.1908 172.6 37.9813 172.962 37.6049C173.332 37.2357 173.669 36.6356 173.974 35.8048L174.443 34.5266L168.393 18.0801H171.12L175.636 31.118H175.806L180.323 18.0801H183.05L176.105 36.8274C175.792 37.6724 175.405 38.3719 174.944 38.9258C174.482 39.4868 173.946 39.9022 173.335 40.172C172.732 40.4419 172.05 40.5768 171.29 40.5768Z" fill="white"/>
</svg>
