<svg width="0" height="0" class="hidden">
  <symbol fill="none" xmlns="http://www.w3.org/2000/svg" viewBox="0 0 512 512" id="menu">
    <path d="M458.667 512H53.3333C23.9147 512 0 488.064 0 458.667V53.3333C0 23.936 23.9147 0 53.3333 0H458.667C488.085 0 512 23.936 512 53.3333V458.667C512 488.064 488.085 512 458.667 512ZM53.3333 21.3333C35.6907 21.3333 21.3333 35.6907 21.3333 53.3333V458.667C21.3333 476.309 35.6907 490.667 53.3333 490.667H458.667C476.309 490.667 490.667 476.309 490.667 458.667V53.3333C490.667 35.6907 476.309 21.3333 458.667 21.3333H53.3333Z" fill="currentcolor"></path>
    <path d="M352 170.667H160C154.112 170.667 149.333 165.888 149.333 160C149.333 154.112 154.112 149.333 160 149.333H352C357.888 149.333 362.667 154.112 362.667 160C362.667 165.888 357.888 170.667 352 170.667Z" fill="currentcolor"></path>
    <path d="M352 266.667H160C154.112 266.667 149.333 261.888 149.333 256C149.333 250.112 154.112 245.333 160 245.333H352C357.888 245.333 362.667 250.112 362.667 256C362.667 261.888 357.888 266.667 352 266.667Z" fill="currentcolor"></path>
    <path d="M352 362.667H160C154.112 362.667 149.333 357.888 149.333 352C149.333 346.112 154.112 341.333 160 341.333H352C357.888 341.333 362.667 346.112 362.667 352C362.667 357.888 357.888 362.667 352 362.667Z" fill="currentcolor"></path>
  </symbol>
  <symbol fill="none" xmlns="http://www.w3.org/2000/svg" viewBox="0 0 22 24" id="search">
    <g clip-path="url(#clip0_2_40)">
      <path d="M0.0999954 8.59999C-0.0953437 10.2435 0.182181 11.9087 0.899996 13.4C1.02328 13.5947 1.21005 13.7409 1.42872 13.8138C1.64738 13.8867 1.88452 13.8818 2.1 13.8C2.21521 13.7596 2.31965 13.6933 2.40531 13.6063C2.49097 13.5193 2.55557 13.4139 2.59418 13.2981C2.63279 13.1822 2.64438 13.0591 2.62805 12.9381C2.61173 12.8171 2.56792 12.7014 2.49999 12.6C1.97097 11.406 1.73114 10.1041 1.8 8.79999C1.94586 6.78435 2.88647 4.9092 4.41489 3.58707C5.94331 2.26494 7.93435 1.60412 9.95 1.74999C11.9656 1.89586 13.8408 2.83647 15.1629 4.36489C16.485 5.89331 17.1459 7.88435 17 9.89999C16.8804 11.2149 16.4246 12.477 15.6766 13.565C14.9285 14.6529 13.9132 15.5303 12.7283 16.1127C11.5433 16.6951 10.2285 16.9631 8.91017 16.8908C7.5918 16.8185 6.31417 16.4085 5.2 15.7C5.11146 15.6256 5.00785 15.5713 4.89632 15.5408C4.78478 15.5104 4.66796 15.5044 4.5539 15.5234C4.43984 15.5424 4.33126 15.5859 4.23564 15.6509C4.14002 15.716 4.05962 15.8009 3.99999 15.9C3.92372 15.9969 3.86818 16.1085 3.83683 16.2278C3.80547 16.3471 3.79897 16.4715 3.81773 16.5934C3.83648 16.7153 3.88009 16.8321 3.94585 16.9364C4.01161 17.0408 4.09811 17.1305 4.2 17.2C5.55799 18.0537 7.1014 18.5681 8.7 18.7C10.8696 18.8643 13.0281 18.2628 14.8 17L20.3 23.4C20.4539 23.5736 20.6688 23.681 20.9 23.7C21.0238 23.7341 21.1546 23.7334 21.278 23.6981C21.4015 23.6629 21.5129 23.5943 21.6 23.5C21.7619 23.3477 21.8618 23.1408 21.8802 22.9192C21.8987 22.6976 21.8345 22.477 21.7 22.3L16.1 15.9C17.651 14.3526 18.5768 12.2874 18.7 10.1C18.7985 8.8787 18.6555 7.64996 18.2791 6.48394C17.9027 5.31793 17.3004 4.23746 16.5064 3.30423C15.7125 2.371 14.7425 1.60329 13.6519 1.04492C12.5612 0.48656 11.3713 0.148482 10.15 0.0499909C7.68348 -0.148921 5.23897 0.640132 3.35423 2.24357C1.46949 3.847 0.298908 6.13348 0.0999954 8.59999Z" fill="currentcolor"></path>
    </g>
    <defs>
      <clipPath id="clip0_2_40">
        <rect width="21.8" height="23.8" fill="white"></rect>
      </clipPath>
    </defs>
  </symbol>
  <symbol fill="none" xmlns="http://www.w3.org/2000/svg" viewBox="0 0 509 509" id="quotes">
    <g clip-path="url(#clip0_2_20)">
      <path d="M0.108017 352.536C0.108017 419.33 54.252 473.474 121.045 473.474C187.839 473.474 241.983 419.33 241.983 352.536C241.983 285.742 187.839 231.599 121.045 231.599C107.318 231.599 94.178 233.992 81.877 238.209C109.093 82.118 230.814 -18.543 117.979 64.303C-7.13799 156.17 -0.025983 348.84 0.114017 352.371C0.114017 352.426 0.108017 352.475 0.108017 352.536Z" fill="currentcolor"></path>
      <path d="M266.169 352.536C266.169 419.33 320.313 473.474 387.107 473.474C453.901 473.474 508.045 419.33 508.045 352.536C508.045 285.742 453.9 231.599 387.106 231.599C373.378 231.599 360.239 233.992 347.938 238.209C375.154 82.118 496.875 -18.543 384.04 64.303C258.923 156.17 266.034 348.84 266.175 352.371C266.175 352.426 266.169 352.475 266.169 352.536Z" fill="currentcolor"></path>
    </g>
    <defs>
      <clipPath id="clip0_2_20">
        <rect width="508.044" height="508.044" fill="white"></rect>
      </clipPath>
    </defs>
  </symbol>
  <symbol fill="none" xmlns="http://www.w3.org/2000/svg" viewBox="0 0 512 512" id="wordpress">
    <path d="M41.073 152.466C39.648 148.563 35.999 145.915 31.847 145.77C27.672 145.638 23.87 148.015 22.178 151.809C7.46797 184.791 0.00897217 219.844 0.00897217 255.99C0.00897217 304.954 13.884 352.549 40.133 393.629C65.681 433.612 101.697 465.682 144.291 486.372C145.709 487.062 147.232 487.397 148.745 487.397C151.219 487.397 153.666 486.497 155.581 484.768C158.666 481.983 159.753 477.604 158.328 473.7L41.073 152.466ZM20.408 255.99C20.408 231.726 24.06 207.996 31.291 185.153L129.791 455.007C61.706 412.039 20.408 337.973 20.408 255.99Z" fill="currentcolor"></path>
    <path d="M345.376 480.765L269.903 273.994C268.432 269.966 264.603 267.292 260.323 267.292C260.291 267.292 260.259 267.292 260.227 267.292C255.909 267.333 252.084 270.088 250.677 274.172L176.924 488.465C176.017 491.098 176.227 493.988 177.505 496.463C178.783 498.938 181.018 500.782 183.69 501.569C207.225 508.492 231.555 512 256.001 512C285.054 512 313.657 507.117 341.016 497.486C343.923 496.462 346.211 494.179 347.242 491.274C348.273 488.369 347.934 485.153 346.32 482.527C345.897 481.836 345.594 481.272 345.376 480.765ZM256.001 491.602C237.057 491.602 218.187 489.311 199.763 484.784L260.604 308.011L323.964 481.601C301.937 488.241 279.126 491.602 256.001 491.602Z" fill="currentcolor"></path>
    <path d="M373.292 403.888C377.606 403.888 381.459 401.171 382.904 397.1L410.042 320.662C423.06 287.266 429.388 260.107 429.388 237.64C429.388 203.77 419.365 186.227 410.519 170.749C410.465 170.655 410.41 170.56 410.352 170.466C409.37 168.869 408.393 167.291 407.426 165.729C396.857 148.664 387.728 133.926 387.728 118.158C387.728 102.084 399.607 84.734 418.797 84.734C419.114 84.734 419.601 84.775 420.118 84.819C420.522 84.853 420.923 84.886 421.327 84.912C425.656 85.193 429.668 82.712 431.365 78.733C433.061 74.754 432.064 70.136 428.873 67.213C381.573 23.87 320.18 0 256.001 0C169.666 0 89.708 43.127 42.115 115.365C40.084 118.448 39.877 122.387 41.574 125.665C43.27 128.942 46.606 131.048 50.294 131.17C56.575 131.378 62.013 131.484 66.454 131.484C90.14 131.484 124.83 128.934 131.636 128.416C132.725 130.378 132.829 135.056 131.773 136.806C129.088 137.106 117.454 138.359 104.88 139.015C101.695 139.181 98.772 140.826 96.978 143.464C95.184 146.1 94.727 149.425 95.743 152.448L176.223 392.013C177.618 396.166 181.509 398.964 185.891 398.964C185.895 398.964 185.899 398.964 185.902 398.964C190.288 398.959 194.18 396.151 195.567 391.991L249.36 230.668C250.098 228.454 250.056 226.055 249.238 223.868L219.969 145.625C218.553 141.843 215.041 139.252 211.01 139.017C199.426 138.342 188.238 137.029 186.219 136.786C185.3 134.84 185.512 130.349 186.596 128.418C193.598 128.942 228.695 131.482 250.932 131.482C274.622 131.482 309.314 128.932 316.116 128.414C317.206 130.375 317.312 135.055 316.255 136.803C313.578 137.103 301.927 138.357 289.359 139.014C286.166 139.18 283.236 140.835 281.443 143.483C279.651 146.131 279.204 149.466 280.236 152.492L363.64 396.982C365.041 401.09 368.89 403.861 373.23 403.888C373.25 403.888 373.27 403.888 373.292 403.888ZM303.83 158.48C312.528 157.772 318.818 157.043 319.205 156.997C330.931 155.611 338.526 144.254 337.266 129.992C336.06 116.359 327.232 107.296 315.843 107.978C315.778 107.982 315.71 107.986 315.645 107.991C315.25 108.022 275.931 111.083 250.929 111.083C227.452 111.083 187.378 108.02 186.976 107.99C186.915 107.985 186.854 107.981 186.792 107.978C175.204 107.283 166.14 117.061 165.303 131.206C164.467 145.332 172.164 156.12 183.654 157.023C185.278 157.22 193.41 158.187 203.163 158.93L228.864 227.636L185.852 356.629L119.288 158.486C128.024 157.777 134.341 157.044 134.732 156.998C146.456 155.612 154.048 144.251 152.787 129.986C151.58 116.357 142.755 107.289 131.368 107.979C131.303 107.983 131.235 107.987 131.17 107.992C130.796 108.023 95.286 110.787 70.291 111.063C114.838 53.96 182.937 20.397 256.001 20.397C307.925 20.397 357.869 37.375 398.758 68.584C380.306 76.771 367.33 95.91 367.33 118.158C367.33 139.731 378.383 157.577 390.085 176.47C391.012 177.967 391.949 179.48 392.891 181.011C401.181 195.52 408.988 209.28 408.988 237.64C408.988 257.282 402.93 282.768 390.98 313.395C390.942 313.493 390.906 313.591 390.871 313.69L373.483 362.662L303.83 158.48Z" fill="currentcolor"></path>
    <path d="M480.631 133.175C478.27 128.867 473.17 126.856 468.498 128.389C463.829 129.927 460.921 134.577 461.581 139.448C462.619 147.113 463.147 155.155 463.147 163.349C463.147 190.173 457.436 216.943 445.176 247.596C445.116 247.746 445.06 247.898 445.007 248.05L369.937 465.106C368.544 469.137 369.805 473.61 373.101 476.319C374.969 477.853 377.267 478.638 379.58 478.638C381.345 478.638 383.119 478.18 384.712 477.25C422.729 455.087 454.601 423.329 476.883 385.408C499.852 346.32 511.992 301.569 511.992 255.991C511.991 213.087 501.147 170.617 480.631 133.175ZM399.158 443.029L464.209 254.943C473.54 231.568 479.346 210.162 481.945 189.217C488.31 210.808 491.595 233.333 491.595 255.991C491.595 329.489 456.798 398.762 399.158 443.029Z" fill="currentcolor"></path>
    <path d="M262.286 369.734C256.944 367.952 251.167 370.842 249.385 376.185L248.025 380.264C246.244 385.607 249.133 391.383 254.476 393.165C255.546 393.522 256.633 393.691 257.702 393.691C261.972 393.691 265.952 390.988 267.377 386.714L268.737 382.635C270.518 377.292 267.629 371.516 262.286 369.734Z" fill="currentcolor"></path>
    <path d="M249.707 407.472C244.363 405.686 238.588 408.58 236.806 413.922L219.807 464.918C218.026 470.261 220.915 476.037 226.258 477.818C227.328 478.176 228.415 478.345 229.484 478.345C233.754 478.345 237.734 475.642 239.159 471.368L256.157 420.372C257.939 415.029 255.05 409.253 249.707 407.472Z" fill="currentcolor"></path>
  </symbol>
  <symbol fill="none" xmlns="http://www.w3.org/2000/svg" viewBox="0 0 486 486" id="settings">
    <g clip-path="url(#clip0_2_42)">
      <path d="M334.512 312H134.512C132.39 312 130.356 312.844 128.856 314.344L32.856 410.344L44.168 421.656L137.824 328H325.712C324.048 337.496 318.824 352 302.512 352H214.512V368H302.512C334.152 368 342.512 336.6 342.512 320C342.512 315.582 338.93 312 334.512 312Z" fill="black"></path>
      <path d="M436.168 258.344C433.044 255.221 427.98 255.221 424.856 258.344L352.856 330.344L364.168 341.656L429.88 275.944C440.708 290.314 438.509 310.624 424.856 322.344L331.2 416H166.512C164.39 416 162.356 416.844 160.856 418.344L104.856 474.344L116.168 485.656L169.824 432H334.512C336.634 432 338.668 431.156 340.168 429.656L436.168 333.656C465.96 303.864 449.192 271.368 436.168 258.344Z" fill="black"></path>
      <path d="M390.512 112H361.76C359.567 104.652 356.621 97.55 352.968 90.808L373.312 70.464C376.435 67.34 376.435 62.276 373.312 59.152L339.36 25.208C336.236 22.085 331.172 22.085 328.048 25.208L307.704 45.552C300.963 41.894 293.861 38.945 286.512 36.752V8C286.512 3.582 282.93 0 278.512 0H230.512C226.094 0 222.512 3.582 222.512 8V36.752C215.163 38.945 208.061 41.894 201.32 45.552L180.976 25.208C177.852 22.085 172.788 22.085 169.664 25.208L135.712 59.152C132.589 62.276 132.589 67.34 135.712 70.464L156.064 90.808C152.409 97.55 149.46 104.652 147.264 112H118.512C114.094 112 110.512 115.582 110.512 120V168C110.512 172.418 114.094 176 118.512 176H147.264C149.457 183.348 152.403 190.45 156.056 197.192L135.712 217.536C132.589 220.66 132.589 225.724 135.712 228.848L169.664 262.8C172.838 265.801 177.802 265.801 180.976 262.8L201.32 242.448C208.062 246.103 215.164 249.052 222.512 251.248V280C222.512 284.418 226.094 288 230.512 288H278.512C282.93 288 286.512 284.418 286.512 280V251.248C293.86 249.054 300.961 246.108 307.704 242.456L328.048 262.8C329.548 264.3 331.582 265.144 333.704 265.144C335.826 265.144 337.86 264.3 339.36 262.8L373.304 228.848C376.427 225.724 376.427 220.66 373.304 217.536L352.96 197.192C356.615 190.45 359.564 183.348 361.76 176H390.512C394.93 176 398.512 172.418 398.512 168V120C398.512 115.582 394.93 112 390.512 112ZM382.513 160H355.625C351.916 160.001 348.694 162.551 347.841 166.16C345.475 176.105 341.532 185.607 336.161 194.304C334.211 197.461 334.688 201.545 337.313 204.168L356.345 223.192L333.705 245.832L314.681 226.792C312.058 224.167 307.974 223.69 304.817 225.64C296.122 231.018 286.62 234.965 276.673 237.328C273.064 238.181 270.514 241.403 270.513 245.112V272H238.513V245.12C238.512 241.411 235.962 238.189 232.353 237.336C222.406 234.973 212.904 231.026 204.209 225.648C201.052 223.698 196.968 224.175 194.345 226.8L175.321 245.84L152.681 223.2L171.713 204.16C174.338 201.537 174.815 197.453 172.865 194.296C167.494 185.598 163.551 176.097 161.185 166.152C160.332 162.543 157.11 159.993 153.401 159.992H126.513V127.992H153.4C157.109 127.991 160.331 125.441 161.184 121.832C163.55 111.887 167.493 102.386 172.864 93.688C174.814 90.531 174.337 86.447 171.712 83.824L152.68 64.8L175.312 42.176L194.344 61.208C196.967 63.833 201.051 64.31 204.208 62.36C212.901 56.981 222.404 53.037 232.352 50.68C235.961 49.827 238.511 46.605 238.512 42.896V16H270.512V42.896C270.514 46.607 273.067 49.83 276.68 50.68C286.628 53.037 296.131 56.981 304.824 62.36C307.981 64.31 312.065 63.833 314.688 61.208L333.712 42.176L356.345 64.8L337.313 83.832C334.688 86.455 334.211 90.539 336.161 93.696C341.532 102.394 345.475 111.895 347.841 121.84C348.694 125.449 351.916 127.999 355.625 128H382.513V160V160Z" fill="black"></path>
      <path d="M254.512 96C228.002 96 206.512 117.49 206.512 144C206.512 170.51 228.003 192 254.512 192C281.011 191.974 302.486 170.499 302.512 144C302.512 117.49 281.022 96 254.512 96ZM254.512 176C236.839 176 222.512 161.673 222.512 144C222.512 126.327 236.839 112 254.512 112C272.185 112 286.512 126.327 286.512 144C286.512 161.673 272.185 176 254.512 176Z" fill="black"></path>
    </g>
    <defs>
      <clipPath id="clip0_2_42">
        <rect width="485.656" height="485.656" fill="white"></rect>
      </clipPath>
    </defs>
  </symbol>
  <symbol fill="none" xmlns="http://www.w3.org/2000/svg" viewBox="0 0 512 512" id="snap">
    <path d="M460.646 10H43.938C25.224 10 10 25.521 10 44.6V464.722C10 483.8 25.224 499.322 43.89 499.322C47.029 499.347 359.236 501.814 482.39 502.001H482.42C484.996 502.005 487.547 501.492 489.922 500.494C492.297 499.496 494.447 498.031 496.247 496.188C498.122 494.292 499.598 492.039 500.586 489.563C501.574 487.086 502.055 484.436 502 481.77L494.579 43.977C494.249 25.242 479.026 10 460.646 10V10ZM43.938 22H460.646C472.525 22 482.365 31.954 482.581 44.184L489.092 428.428L392.315 328.966C389.508 324.445 385.667 320.656 381.108 317.913C376.548 315.169 371.402 313.548 366.093 313.185C360.784 312.821 355.465 313.725 350.574 315.822C345.684 317.919 341.362 321.149 337.965 325.245L292.935 379.05C290.725 381.75 287.889 383.869 284.673 385.223C281.457 386.576 277.959 387.122 274.483 386.814C270.969 386.512 267.581 385.356 264.616 383.446C261.651 381.536 259.198 378.93 257.47 375.855L176.217 235.279C173.467 230.425 169.551 226.332 164.823 223.371C160.094 220.409 154.703 218.673 149.135 218.318C143.567 217.962 137.998 219 132.932 221.337C127.866 223.673 123.461 227.235 120.117 231.701L22 345.014V44.6C22 32.138 31.841 22 43.938 22V22ZM487.705 487.764C487.018 488.471 486.197 489.032 485.29 489.416C484.383 489.8 483.408 489.999 482.423 490H482.412C359.292 489.813 47.124 487.346 43.938 487.321C31.838 487.321 22 477.183 22 464.721V363.346L129.321 239.4L129.592 239.063C131.729 236.15 134.563 233.82 137.835 232.287C141.106 230.753 144.71 230.066 148.316 230.287C151.922 230.508 155.415 231.631 158.475 233.552C161.534 235.473 164.063 238.132 165.828 241.284L247.08 381.86C249.759 386.591 253.548 390.601 258.119 393.544C262.691 396.488 267.909 398.277 273.324 398.758C278.74 399.239 284.192 398.398 289.211 396.307C294.23 394.215 298.665 390.937 302.137 386.752L347.167 332.947C349.377 330.27 352.2 328.165 355.396 326.812C358.593 325.459 362.069 324.898 365.53 325.176C368.99 325.453 372.332 326.562 375.272 328.408C378.212 330.253 380.663 332.781 382.417 335.777L382.773 336.368L489.388 445.94L490 481.968C490.024 483.038 489.834 484.103 489.44 485.099C489.046 486.094 488.456 487 487.705 487.764V487.764Z" fill="currentcolor"></path>
    <path d="M284.988 218.5C314.688 218.5 338.852 193.829 338.852 163.505C338.852 133.181 314.688 108.51 284.988 108.51C255.288 108.51 231.125 133.181 231.125 163.505C231.125 193.829 255.288 218.5 284.988 218.5ZM284.988 120.51C308.072 120.51 326.852 139.797 326.852 163.505C326.852 187.213 308.072 206.505 284.988 206.505C261.904 206.505 243.125 187.217 243.125 163.51C243.125 139.803 261.9 120.514 284.988 120.514V120.51Z" fill="currentcolor"></path>
  </symbol>
  <symbol fill="none" xmlns="http://www.w3.org/2000/svg" viewBox="0 0 502 502" id="clock">
    <g clip-path="url(#clip0_2_109)">
      <path d="M342.512 328H142.512C140.39 328 138.356 328.844 136.856 330.344L40.856 426.344L52.168 437.656L145.824 344H333.712C332.048 353.496 326.824 368 310.512 368H222.512V384H310.512C342.152 384 350.512 352.6 350.512 336C350.512 331.582 346.93 328 342.512 328Z" fill="black"></path>
      <path d="M444.168 274.344C441.044 271.221 435.98 271.221 432.856 274.344L360.856 346.344L372.168 357.656L437.88 291.944C448.708 306.314 446.509 326.624 432.856 338.344L339.2 432H174.512C172.39 432 170.356 432.844 168.856 434.344L112.856 490.344L124.168 501.656L177.824 448H342.512C344.634 448 346.668 447.156 348.168 445.656L444.168 349.656C473.96 319.864 457.192 287.368 444.168 274.344Z" fill="black"></path>
      <path d="M262.512 0C178.565 0 110.512 68.053 110.512 152C110.512 235.947 178.565 304 262.512 304C346.421 303.907 414.419 235.909 414.512 152C414.512 68.053 346.459 0 262.512 0ZM262.512 288C187.401 288 126.512 227.111 126.512 152C126.512 76.889 187.402 16 262.512 16C337.588 16.084 398.428 76.924 398.512 152C398.512 227.111 337.623 288 262.512 288Z" fill="black"></path>
      <path d="M262.512 40C200.656 40 150.512 90.144 150.512 152C150.512 213.856 200.657 264 262.512 264C324.34 263.934 374.446 213.828 374.512 152C374.512 90.144 324.368 40 262.512 40ZM270.512 247.666V224H254.512V247.666C207.875 243.818 170.695 206.638 166.846 160H190.512V144H166.846C170.695 97.363 207.875 60.183 254.512 56.334V80H270.512V56.343C317.124 60.236 354.276 97.388 358.169 144H334.512V160H358.178C354.33 206.637 317.15 243.817 270.512 247.666Z" fill="black"></path>
      <path d="M284.18 162.33C285.674 159.201 286.513 155.699 286.513 152C286.513 141.551 279.833 132.666 270.513 129.371V96H254.513V129.371C245.193 132.666 238.513 141.551 238.513 152C238.512 165.255 249.258 176 262.512 176C266.223 176 269.737 175.157 272.874 173.653L296.851 197.63L308.165 186.316L284.18 162.33ZM262.512 160C258.094 160 254.512 156.418 254.512 152C254.512 147.582 258.094 144 262.512 144C266.93 144 270.512 147.582 270.512 152C270.512 156.418 266.93 160 262.512 160Z" fill="black"></path>
    </g>
    <defs>
      <clipPath id="clip0_2_109">
        <rect width="501.656" height="501.656" fill="white"></rect>
      </clipPath>
    </defs>
  </symbol>
  <symbol fill="none" xmlns="http://www.w3.org/2000/svg" viewBox="0 0 512 512" id="computer">
    <path d="M106.344 114.344L82.344 138.344C80.8442 139.844 80.0017 141.879 80.0017 144C80.0017 146.121 80.8442 148.156 82.344 149.656L106.344 173.656L117.656 162.344L99.312 144L117.656 125.656L106.344 114.344Z" fill="black"></path>
    <path d="M128.448 173.213L152.44 109.235L167.416 114.851L143.424 178.829L128.448 173.213Z" fill="black"></path>
    <path d="M189.656 173.656L213.656 149.656C215.156 148.156 215.998 146.121 215.998 144C215.998 141.879 215.156 139.844 213.656 138.344L189.656 114.344L178.344 125.656L196.688 144L178.344 162.344L189.656 173.656Z" fill="black"></path>
    <path d="M80 208H112V224H80V208Z" fill="black"></path>
    <path d="M128 208H208V224H128V208Z" fill="black"></path>
    <path d="M96 240H128V256H96V240Z" fill="black"></path>
    <path d="M144 240H224V256H144V240Z" fill="black"></path>
    <path d="M240 240H256V256H240V240Z" fill="black"></path>
    <path d="M96 272H128V288H96V272Z" fill="black"></path>
    <path d="M144 272H224V288H144V272Z" fill="black"></path>
    <path d="M240 272H256V288H240V272Z" fill="black"></path>
    <path d="M489.136 104.08L467.68 101.016C466.23 96.5045 464.413 92.1192 462.248 87.904L475.248 70.576C476.403 69.0354 476.964 67.1299 476.827 65.2092C476.69 63.2885 475.866 61.4815 474.504 60.12L451.88 37.496C450.519 36.1365 448.714 35.313 446.795 35.1764C444.876 35.0397 442.972 35.5991 441.432 36.752L424.096 49.744C419.88 47.5828 415.495 45.7688 410.984 44.32L407.92 22.864C407.647 20.9584 406.695 19.2153 405.241 17.9545C403.786 16.6937 401.925 15.9997 400 16H368C366.075 15.9997 364.214 16.6937 362.759 17.9545C361.305 19.2153 360.353 20.9584 360.08 22.864L357.016 44.32C352.505 45.7673 348.119 47.5813 343.904 49.744L326.568 36.752C325.028 35.5991 323.124 35.0397 321.205 35.1764C319.286 35.313 317.481 36.1365 316.12 37.496L293.496 60.12C292.134 61.4815 291.31 63.2885 291.173 65.2092C291.036 67.1299 291.597 69.0354 292.752 70.576L305.752 87.904C303.587 92.1192 301.77 96.5045 300.32 101.016L278.864 104.08C276.958 104.353 275.215 105.305 273.954 106.759C272.694 108.214 272 110.075 272 112V144C272 145.925 272.694 147.786 273.954 149.241C275.215 150.695 276.958 151.647 278.864 151.92L300.32 154.984C301.77 159.495 303.587 163.881 305.752 168.096L292.752 185.424C291.597 186.965 291.036 188.87 291.173 190.791C291.31 192.712 292.134 194.518 293.496 195.88L316.12 218.504C317.481 219.863 319.286 220.687 321.205 220.824C323.124 220.96 325.028 220.401 326.568 219.248L343.904 206.256C348.119 208.419 352.505 210.233 357.016 211.68L360.08 233.136C360.353 235.042 361.305 236.785 362.759 238.046C364.214 239.306 366.075 240 368 240H400C401.925 240 403.786 239.306 405.241 238.046C406.695 236.785 407.647 235.042 407.92 233.136L410.984 211.68C415.495 210.231 419.88 208.417 424.096 206.256L441.432 219.248C442.972 220.401 444.876 220.96 446.795 220.824C448.714 220.687 450.519 219.863 451.88 218.504L474.504 195.88C475.866 194.518 476.69 192.712 476.827 190.791C476.964 188.87 476.403 186.965 475.248 185.424L462.248 168.096C464.413 163.881 466.23 159.495 467.68 154.984L489.136 151.92C491.042 151.647 492.785 150.695 494.046 149.241C495.306 147.786 496 145.925 496 144V112C496 110.075 495.306 108.214 494.046 106.759C492.785 105.305 491.042 104.353 489.136 104.08ZM480 137.064L460.296 139.88C458.73 140.104 457.265 140.788 456.088 141.845C454.91 142.901 454.072 144.283 453.68 145.816C451.991 152.443 449.359 158.794 445.864 164.672C445.056 166.035 444.671 167.608 444.758 169.19C444.845 170.773 445.399 172.293 446.352 173.56L458.288 189.48L445.488 202.28L429.56 190.344C428.293 189.394 426.774 188.842 425.193 188.756C423.612 188.671 422.042 189.056 420.68 189.864C414.806 193.359 408.458 195.986 401.832 197.664C400.295 198.054 398.909 198.892 397.849 200.071C396.789 201.251 396.104 202.718 395.88 204.288L393.064 224H374.936L372.128 204.296C371.904 202.726 371.219 201.259 370.159 200.079C369.099 198.9 367.713 198.062 366.176 197.672C359.55 195.994 353.202 193.367 347.328 189.872C345.966 189.064 344.396 188.679 342.815 188.764C341.234 188.85 339.715 189.402 338.448 190.352L322.52 202.288L309.72 189.488L321.656 173.568C322.609 172.301 323.163 170.781 323.25 169.198C323.337 167.616 322.952 166.043 322.144 164.68C318.649 158.802 316.017 152.451 314.328 145.824C313.936 144.291 313.098 142.909 311.92 141.853C310.743 140.796 309.278 140.112 307.712 139.888L288 137.064V118.936L307.704 116.12C309.27 115.896 310.735 115.212 311.912 114.155C313.09 113.099 313.928 111.717 314.32 110.184C316.009 103.557 318.641 97.2065 322.136 91.328C322.944 89.9648 323.329 88.3922 323.242 86.8099C323.155 85.2275 322.601 83.7066 321.648 82.44L309.712 66.52L322.512 53.72L338.44 65.656C339.707 66.6056 341.226 67.1581 342.807 67.2436C344.388 67.329 345.958 66.9436 347.32 66.136C353.194 62.6407 359.542 60.0135 366.168 58.336C367.705 57.946 369.091 57.1081 370.151 55.9287C371.211 54.7493 371.896 53.2817 372.12 51.712L374.936 32H393.064L395.872 51.704C396.096 53.2737 396.781 54.7413 397.841 55.9207C398.901 57.1001 400.287 57.938 401.824 58.328C408.45 60.0055 414.798 62.6327 420.672 66.128C422.034 66.9356 423.604 67.321 425.185 67.2356C426.766 67.1501 428.285 66.5976 429.552 65.648L445.48 53.712L458.28 66.512L446.344 82.432C445.391 83.6986 444.837 85.2195 444.75 86.8019C444.663 88.3842 445.048 89.9568 445.856 91.32C449.351 97.1985 451.983 103.549 453.672 110.176C454.064 111.709 454.902 113.091 456.08 114.147C457.257 115.204 458.722 115.888 460.288 116.112L480 118.936V137.064Z" fill="black"></path>
    <path d="M384 80C374.507 80 365.226 82.8152 357.333 88.0895C349.439 93.3638 343.287 100.86 339.654 109.631C336.021 118.402 335.07 128.053 336.922 137.364C338.774 146.675 343.346 155.228 350.059 161.941C356.772 168.654 365.325 173.226 374.636 175.078C383.947 176.93 393.598 175.979 402.369 172.346C411.14 168.713 418.636 162.561 423.911 154.667C429.185 146.774 432 137.494 432 128C431.987 115.274 426.926 103.072 417.927 94.0729C408.928 85.0739 396.727 80.0127 384 80V80ZM384 160C377.671 160 371.484 158.123 366.222 154.607C360.959 151.091 356.858 146.093 354.436 140.246C352.014 134.399 351.38 127.965 352.615 121.757C353.85 115.55 356.897 109.848 361.373 105.373C365.848 100.897 371.55 97.8496 377.757 96.6149C383.965 95.3801 390.399 96.0138 396.246 98.4359C402.093 100.858 407.091 104.959 410.607 110.222C414.123 115.484 416 121.671 416 128C416 136.487 412.629 144.626 406.627 150.627C400.626 156.629 392.487 160 384 160Z" fill="black"></path>
    <path d="M416 320H32V120C32 113.635 34.5286 107.53 39.0294 103.029C43.5303 98.5286 49.6348 96 56 96H280V80H56C45.3952 80.0127 35.2285 84.2311 27.7298 91.7298C20.2311 99.2285 16.0127 109.395 16 120V360C16.0127 370.605 20.2311 380.772 27.7298 388.27C35.2285 395.769 45.3952 399.987 56 400H158.936L152.936 448H136C131.757 448 127.687 449.686 124.686 452.686C121.686 455.687 120 459.757 120 464V480C120 484.243 121.686 488.313 124.686 491.314C127.687 494.314 131.757 496 136 496H312C316.243 496 320.313 494.314 323.314 491.314C326.314 488.313 328 484.243 328 480V464C328 459.757 326.314 455.687 323.314 452.686C320.313 449.686 316.243 448 312 448H295.064L289.064 400H392C402.605 399.987 412.772 395.769 420.27 388.27C427.769 380.772 431.987 370.605 432 360V232H416V320ZM312 480H136V464H312V480ZM278.936 448H169.064L175.064 400H272.936L278.936 448ZM392 384H56C49.6348 384 43.5303 381.471 39.0294 376.971C34.5286 372.47 32 366.365 32 360V336H416V360C416 366.365 413.471 372.47 408.971 376.971C404.47 381.471 398.365 384 392 384Z" fill="black"></path>
    <path d="M368 352H384V368H368V352Z" fill="black"></path>
  </symbol>
  <symbol fill="none" xmlns="http://www.w3.org/2000/svg" viewBox="0 0 512 512" id="growth">
    <path d="M504.5 480.837H465.53V240.49C465.53 236.348 462.173 232.99 458.03 232.99C453.887 232.99 450.53 236.348 450.53 240.49V480.837H400.882L400.88 162.48H450.53V205.49C450.53 209.632 453.887 212.99 458.03 212.99C462.173 212.99 465.53 209.632 465.53 205.49V154.98C465.53 150.838 462.173 147.48 458.03 147.48H393.38C389.237 147.48 385.88 150.838 385.88 154.98V197.992H328.732C324.589 197.992 321.232 201.35 321.232 205.492V248.5H264.082C259.939 248.5 256.582 251.858 256.582 256V299.008H199.432C195.289 299.008 191.932 302.366 191.932 306.508V349.516H134.782C130.639 349.516 127.282 352.874 127.282 357.016V395.98H70.13C65.987 395.98 62.63 399.338 62.63 403.48V424.37C62.63 428.512 65.987 431.87 70.13 431.87C74.273 431.87 77.63 428.512 77.63 424.37V410.98H127.28V480.837H77.63V459.37C77.63 455.228 74.273 451.87 70.13 451.87C65.987 451.87 62.63 455.228 62.63 459.37V480.837H31.163V7.5C31.163 3.358 27.806 0 23.663 0C19.52 0 16.163 3.358 16.163 7.5V46.467H7.5C3.357 46.467 0 49.825 0 53.967C0 58.109 3.357 61.467 7.5 61.467H16.163V111.117H7.5C3.357 111.117 0 114.475 0 118.617C0 122.759 3.357 126.117 7.5 126.117H16.163V175.767H7.5C3.357 175.767 0 179.125 0 183.267C0 187.409 3.357 190.767 7.5 190.767H16.163V240.417H7.5C3.357 240.417 0 243.775 0 247.917C0 252.059 3.357 255.417 7.5 255.417H16.163V305.068H7.5C3.357 305.068 0 308.426 0 312.568C0 316.71 3.357 320.068 7.5 320.068H16.163V369.718H7.5C3.357 369.718 0 373.076 0 377.218C0 381.36 3.357 384.718 7.5 384.718H16.163V434.368H7.5C3.357 434.368 0 437.726 0 441.868C0 446.01 3.357 449.368 7.5 449.368H16.163V488.335C16.163 492.477 19.52 495.835 23.663 495.835H62.63V504.498C62.63 508.64 65.987 511.998 70.13 511.998C74.273 511.998 77.63 508.64 77.63 504.498V495.838H127.28V504.498C127.28 508.64 130.637 511.998 134.78 511.998C138.923 511.998 142.28 508.64 142.28 504.498V495.835H191.93V504.498C191.93 508.64 195.287 511.998 199.43 511.998C203.573 511.998 206.93 508.64 206.93 504.498V495.835H256.58V504.498C256.58 508.64 259.937 511.998 264.08 511.998C268.223 511.998 271.58 508.64 271.58 504.498V495.835H321.23V504.498C321.23 508.64 324.587 511.998 328.73 511.998C332.873 511.998 336.23 508.64 336.23 504.498V495.835H385.88V504.498C385.88 508.64 389.237 511.998 393.38 511.998C397.523 511.998 400.88 508.64 400.88 504.498V495.838H450.53V504.498C450.53 508.64 453.887 511.998 458.03 511.998C462.173 511.998 465.53 508.64 465.53 504.498V495.835H504.5C508.643 495.835 512 492.477 512 488.335C512 484.193 508.643 480.837 504.5 480.837V480.837ZM142.28 364.516H191.93V480.837H142.28V364.516ZM206.931 314.008H256.581V480.837H206.931V314.008ZM271.581 263.5H321.231V480.837H271.581V263.5ZM336.231 212.992H385.879V480.838H336.231V212.992Z" fill="black"></path>
    <path d="M86.1 338.44C92.423 338.44 98.367 335.98 102.834 331.513L215.744 218.603C218.673 215.674 218.673 210.925 215.744 207.997C212.814 205.068 208.066 205.068 205.137 207.997L92.228 320.906C90.593 322.54 88.417 323.44 86.1 323.44C83.789 323.44 81.618 322.54 79.984 320.907C78.344 319.267 77.441 317.09 77.441 314.777C77.441 312.466 78.342 310.293 79.984 308.654L343.505 45.134C345.65 42.989 346.291 39.763 345.13 36.961C343.97 34.158 341.234 32.331 338.201 32.331H314.591C309.816 32.331 305.931 28.442 305.931 23.661C305.931 18.886 309.816 15.001 314.591 15.001H377.221C381.996 15.001 385.881 18.886 385.881 23.661V86.291C385.881 91.072 381.996 94.961 377.221 94.961C372.446 94.961 368.561 91.072 368.561 86.291V62.68C368.561 59.646 366.734 56.912 363.931 55.751C361.127 54.59 357.904 55.233 355.757 57.377L229.877 183.257C226.948 186.186 226.948 190.935 229.877 193.863C232.807 196.792 237.555 196.792 240.484 193.863L353.56 80.787V86.29C353.56 99.342 364.174 109.96 377.22 109.96C390.266 109.96 400.88 99.342 400.88 86.29V23.66C400.88 10.614 390.266 0 377.22 0H314.59C301.544 0 290.93 10.614 290.93 23.66C290.93 36.712 301.544 47.33 314.59 47.33H320.094L69.38 298.043C64.905 302.512 62.441 308.455 62.441 314.776C62.441 321.096 64.904 327.04 69.378 331.513C73.844 335.98 79.783 338.44 86.1 338.44V338.44Z" fill="black"></path>
  </symbol>
  <symbol fill="none" xmlns="http://www.w3.org/2000/svg" viewBox="0 0 50 2" id="line">
    <path d="M0 0H50V2H0V0Z" fill="#63C3EF"></path>
  </symbol>
  <symbol fill="none" xmlns="http://www.w3.org/2000/svg" viewBox="0 0 51 51" id="chevron">
    <path d="M25.5 51C39.5833 51 51 39.5833 51 25.5C51 11.4167 39.5833 0 25.5 0C11.4167 0 0 11.4167 0 25.5C0 39.5833 11.4167 51 25.5 51Z" fill="#393939"/>
    <path d="M17.101 21.396C16.8226 21.0514 16.3176 20.9977 15.973 21.276C15.6284 21.5544 15.5746 22.0594 15.853 22.404L24.4462 33.0432C24.7246 33.3879 25.2296 33.4416 25.5742 33.1632C25.9188 32.8849 25.9726 32.3799 25.6942 32.0352L17.101 21.396Z" fill="white"/>
    <path d="M34.3702 22.0791C34.6379 21.7276 34.57 21.2257 34.2186 20.9579C33.8671 20.6902 33.3651 20.7581 33.0974 21.1095L24.8317 31.9598C24.564 32.3112 24.6318 32.8132 24.9833 33.081C25.3348 33.3487 25.8367 33.2808 26.1045 32.9294L34.3702 22.0791Z" fill="white"/>
</symbol> 
</svg>